<svg width="441" height="1076" viewBox="0 0 441 1076" fill="none" xmlns="http://www.w3.org/2000/svg">
<g filter="url(#filter0_d_24_864)">
<path fill-rule="evenodd" clip-rule="evenodd" d="M343.803 1183.44C252.304 1085.68 199.741 966.763 152.327 841.533C95.4811 691.395 -1.86617 539.563 41.4773 384.941C86.6503 223.793 223.26 90.156 379.654 30.5739C527.039 -25.5759 683.58 51.1224 838.336 81.3589C976.978 108.447 1137.19 95.8272 1235.03 197.7C1331.36 297.992 1318.27 454.87 1330.16 593.445C1340.55 714.564 1318.41 827.825 1299.4 947.907C1272.04 1120.81 1332.63 1341.59 1194.7 1449.42C1059.78 1554.87 857.879 1471.82 694.494 1420.75C556.386 1377.58 442.678 1289.07 343.803 1183.44Z" fill="url(#paint0_linear_24_864)"/>
</g>
<defs>
<filter id="filter0_d_24_864" x="0.675781" y="0.561401" width="1362.14" height="1549.76" filterUnits="userSpaceOnUse" color-interpolation-filters="sRGB">
<feFlood flood-opacity="0" result="BackgroundImageFix"/>
<feColorMatrix in="SourceAlpha" type="matrix" values="0 0 0 0 0 0 0 0 0 0 0 0 0 0 0 0 0 0 127 0" result="hardAlpha"/>
<feOffset dy="20"/>
<feGaussianBlur stdDeviation="15"/>
<feComposite in2="hardAlpha" operator="out"/>
<feColorMatrix type="matrix" values="0 0 0 0 0.701961 0 0 0 0 0.133333 0 0 0 0 0.121569 0 0 0 0.2 0"/>
<feBlend mode="normal" in2="BackgroundImageFix" result="effect1_dropShadow_24_864"/>
<feBlend mode="normal" in="SourceGraphic" in2="effect1_dropShadow_24_864" result="shape"/>
</filter>
<linearGradient id="paint0_linear_24_864" x1="1390.97" y1="1237" x2="187.286" y2="148.715" gradientUnits="userSpaceOnUse">
<stop stop-color="#EE0979"/>
<stop offset="1" stop-color="#FF6A00"/>
</linearGradient>
</defs>
</svg>
