<svg width="463" height="982" viewBox="0 0 463 982" fill="none" xmlns="http://www.w3.org/2000/svg">
<g filter="url(#filter0_d_24_745)">
<path fill-rule="evenodd" clip-rule="evenodd" d="M297.997 214.986C365.869 286.189 366.971 392.371 387.692 488.525C408.417 584.703 456.843 684.137 418.63 774.787C380.241 865.855 269.826 893.586 191.524 953.881C97.0292 1026.64 30.9522 1181.6 -87.0482 1164.17C-206.501 1146.53 -207.919 960.652 -299.053 881.427C-392.665 800.048 -574.681 821.342 -615.956 704.379C-656.23 590.256 -521.465 491.209 -476.386 378.915C-428.911 260.651 -456.762 91.3307 -345.161 29.8053C-233.197 -31.9197 -101.333 69.0293 21.5448 104.409C119.31 132.558 227.798 141.342 297.997 214.986Z" fill="url(#paint0_linear_24_745)"/>
</g>
<defs>
<filter id="filter0_d_24_745" x="-653.373" y="0.247162" width="1116.26" height="1215.28" filterUnits="userSpaceOnUse" color-interpolation-filters="sRGB">
<feFlood flood-opacity="0" result="BackgroundImageFix"/>
<feColorMatrix in="SourceAlpha" type="matrix" values="0 0 0 0 0 0 0 0 0 0 0 0 0 0 0 0 0 0 127 0" result="hardAlpha"/>
<feOffset dy="20"/>
<feGaussianBlur stdDeviation="15"/>
<feComposite in2="hardAlpha" operator="out"/>
<feColorMatrix type="matrix" values="0 0 0 0 0.701961 0 0 0 0 0.133333 0 0 0 0 0.121569 0 0 0 0.2 0"/>
<feBlend mode="normal" in2="BackgroundImageFix" result="effect1_dropShadow_24_745"/>
<feBlend mode="normal" in="SourceGraphic" in2="effect1_dropShadow_24_745" result="shape"/>
</filter>
<linearGradient id="paint0_linear_24_745" x1="-486.703" y1="175.685" x2="319.936" y2="898.335" gradientUnits="userSpaceOnUse">
<stop stop-color="#EE0979"/>
<stop offset="1" stop-color="#FF6A00"/>
</linearGradient>
</defs>
</svg>
