<svg id="visual" viewBox="0 0 1083 990" width="1083" height="990" xmlns="http://www.w3.org/2000/svg" xmlns:xlink="http://www.w3.org/1999/xlink" version="1.1"><rect x="0" y="0" width="1083" height="990" fill="#230E2B"></rect><path d="M437 0L437.2 33C437.3 66 437.7 132 428.7 198C419.7 264 401.3 330 392.3 396C383.3 462 383.7 528 391.3 594C399 660 414 726 408.2 792C402.3 858 375.7 924 362.3 957L349 990L0 990L0 957C0 924 0 858 0 792C0 726 0 660 0 594C0 528 0 462 0 396C0 330 0 264 0 198C0 132 0 66 0 33L0 0Z" fill="#ff6a00"></path><path d="M284 0L296.8 33C309.7 66 335.3 132 342.3 198C349.3 264 337.7 330 325.8 396C314 462 302 528 295.3 594C288.7 660 287.3 726 297.2 792C307 858 328 924 338.5 957L349 990L0 990L0 957C0 924 0 858 0 792C0 726 0 660 0 594C0 528 0 462 0 396C0 330 0 264 0 198C0 132 0 66 0 33L0 0Z" fill="#ff502f"></path><path d="M266 0L257.7 33C249.3 66 232.7 132 227.7 198C222.7 264 229.3 330 229.3 396C229.3 462 222.7 528 219.7 594C216.7 660 217.3 726 222.5 792C227.7 858 237.3 924 242.2 957L247 990L0 990L0 957C0 924 0 858 0 792C0 726 0 660 0 594C0 528 0 462 0 396C0 330 0 264 0 198C0 132 0 66 0 33L0 0Z" fill="#ff364a"></path><path d="M149 0L147.7 33C146.3 66 143.7 132 142 198C140.3 264 139.7 330 148.3 396C157 462 175 528 173.7 594C172.3 660 151.7 726 154.2 792C156.7 858 182.3 924 195.2 957L208 990L0 990L0 957C0 924 0 858 0 792C0 726 0 660 0 594C0 528 0 462 0 396C0 330 0 264 0 198C0 132 0 66 0 33L0 0Z" fill="#fa1d62"></path><path d="M106 0L102.2 33C98.3 66 90.7 132 87.3 198C84 264 85 330 85.3 396C85.7 462 85.3 528 90.7 594C96 660 107 726 108.5 792C110 858 102 924 98 957L94 990L0 990L0 957C0 924 0 858 0 792C0 726 0 660 0 594C0 528 0 462 0 396C0 330 0 264 0 198C0 132 0 66 0 33L0 0Z" fill="#ee0979"></path></svg>