<svg width="80" height="80" viewBox="0 0 80 80" fill="none" xmlns="http://www.w3.org/2000/svg">
<g clip-path="url(#clip0_48_874)">
<path d="M65.4979 35.7844C65.4979 49.8969 54.0572 61.3375 39.9447 61.3375C25.8479 61.3375 14.4166 49.9219 14.3916 35.8313V35.7844C14.3916 24.8453 21.2666 15.5109 30.9322 11.8672C33.7354 10.8109 36.7729 10.2328 39.9447 10.2328C54.0572 10.2328 65.4979 21.6734 65.4979 35.7844Z" fill="#FFE26F"/>
<path d="M39.9447 10.2328C36.7729 10.2328 33.7354 10.8109 30.9322 11.8672C32.8947 11.3641 34.951 11.0984 37.0697 11.0984C49.5697 11.0984 59.9041 20.3734 61.5682 32.4172C61.8182 34.2234 60.3994 35.8313 58.5744 35.8313H14.3916C14.4166 49.9219 25.8479 61.3375 39.9447 61.3375C54.0572 61.3375 65.4979 49.8969 65.4979 35.7844C65.4979 21.6734 54.0572 10.2328 39.9447 10.2328Z" fill="#FFC54B"/>
<path d="M56.9822 35.7844C56.9822 45.1953 49.3541 52.8234 39.9447 52.8234C30.551 52.8234 22.9322 45.2203 22.9072 35.8312V35.7844C22.9072 27.1781 29.29 20.0609 37.5791 18.9125C38.3525 18.8031 39.1416 18.7469 39.9447 18.7469C49.3541 18.7469 56.9822 26.375 56.9822 35.7844Z" fill="#FFC54B"/>
<path d="M56.9822 35.7844C56.9822 45.1953 49.3541 52.8234 39.9447 52.8234C30.551 52.8234 22.9322 45.2203 22.9072 35.8312H49.0947C51.1072 35.8312 52.626 33.9672 52.176 32.0062C50.5853 25.075 44.7666 19.7562 37.5791 18.9125C38.3525 18.8031 39.1416 18.7469 39.9447 18.7469C49.3541 18.7469 56.9822 26.375 56.9822 35.7844Z" fill="#FB963F"/>
<path d="M75.3563 40.8078C75.3563 52.4625 69.725 62.8031 61.0344 69.2562L48.5766 73.5813L46.1469 72.5625L8.27656 56.6938C6.80781 53.775 5.73281 50.6266 5.11719 47.3141L7.51563 40.8078H75.3563Z" fill="#7AC2ED"/>
<path d="M75.3568 40.8078C75.3568 52.4625 69.7256 62.8031 61.035 69.2562L48.5771 73.5813L46.1475 72.5625C59.7131 68.3813 69.574 55.7438 69.574 40.8078H75.3568Z" fill="#68A6DC"/>
<path d="M13.4002 40.8078C12.1533 43.7656 9.88301 46.3406 5.11738 47.3141C4.7252 45.2047 4.52051 43.0297 4.52051 40.8078H13.4002Z" fill="#D1E16F"/>
<path d="M6.30594 77.6561H1.17203C0.524687 77.6561 0 78.1808 0 78.8279C0 79.4751 0.524844 79.9998 1.17203 79.9998H6.30594C6.95328 79.9998 7.47797 79.4751 7.47797 78.8279C7.47797 78.1808 6.95328 77.6561 6.30594 77.6561Z" fill="#D0EDF5"/>
<path d="M22.4026 77.6561H11.799C11.1516 77.6561 10.627 78.1808 10.627 78.8279C10.627 79.4751 11.1518 79.9998 11.799 79.9998H22.4026C23.0499 79.9998 23.5746 79.4751 23.5746 78.8279C23.5748 78.1808 23.0499 77.6561 22.4026 77.6561Z" fill="#D0EDF5"/>
<path d="M4.29801 74.9998H14.1202C14.7675 74.9998 15.2922 74.4751 15.2922 73.8279C15.2922 73.1808 14.7674 72.6561 14.1202 72.6561H4.29801C3.65066 72.6561 3.12598 73.1808 3.12598 73.8279C3.12598 74.4751 3.65066 74.9998 4.29801 74.9998Z" fill="#D0EDF5"/>
<path d="M64.837 77.6561H55.0148C54.3675 77.6561 53.8428 78.1808 53.8428 78.8279C53.8428 79.4751 54.3676 79.9998 55.0148 79.9998H64.837C65.4843 79.9998 66.009 79.4751 66.009 78.8279C66.009 78.1808 65.4842 77.6561 64.837 77.6561Z" fill="#D0EDF5"/>
<path d="M78.8125 72.6559H64.3019C63.6546 72.6559 63.1299 73.1806 63.1299 73.8278C63.1299 74.475 63.6547 74.9997 64.3019 74.9997H78.8125C79.4599 74.9997 79.9846 74.475 79.9846 73.8278C79.9847 73.1806 79.4599 72.6559 78.8125 72.6559Z" fill="#D0EDF5"/>
<path d="M46.275 50.3C45.1594 52.8516 37.1 52.2688 35.1297 50.3C33.6047 48.775 32.8984 43.5766 33.85 40.8078H40.3234C43.8625 43.3641 47.2953 47.9656 46.275 50.3Z" fill="#D1E16F"/>
<path d="M61.0341 69.2558C55.1423 73.6309 47.8425 76.2202 39.938 76.2202C31.3177 76.2202 23.4177 73.1419 17.2775 68.023C13.5519 64.9197 10.4762 61.0648 8.27734 56.6944C22.2316 56.6944 13.6064 47.3144 20.0764 47.3144C28.7217 47.3144 27.6059 61.3477 32.3288 63.7853C36.9937 66.1948 40.4787 61.1477 47.1112 61.1477C52.1497 61.1477 52.2044 65.5384 55.6409 67.8589C56.8739 68.6902 58.543 69.2558 61.0341 69.2558Z" fill="#D1E16F"/>
<path d="M55.6408 67.8589C56.8738 68.6902 58.5428 69.2558 61.0339 69.2558C55.1422 73.6309 47.8423 76.2202 39.9378 76.2202C31.3175 76.2202 23.4175 73.1419 17.2773 68.023C22.6736 71.8106 29.2483 74.0325 36.3434 74.0325C43.5386 74.0327 50.2008 71.745 55.6408 67.8589Z" fill="#9CCC4B"/>
<path d="M79.9852 57.8684C79.9852 59.5228 78.6423 60.8653 76.9878 60.8653H61.0583C58.8016 60.8653 56.9727 59.0353 56.9727 56.7791C56.9727 54.5239 58.8017 52.6939 61.0583 52.6939C61.9984 52.6939 62.8645 53.0117 63.5552 53.5456C64.0761 50.6383 66.6183 48.4309 69.6753 48.4309C71.067 48.4309 72.3538 48.8884 73.3906 49.6612C74.9091 50.7948 75.8934 52.6069 75.8934 54.6481C75.8934 54.7939 75.8886 54.9395 75.8791 55.083C76.2219 54.9469 76.5958 54.8716 76.9877 54.8716C78.6423 54.8716 79.9852 56.213 79.9852 57.8684Z" fill="#E6F8FC"/>
<path d="M79.9852 57.8684C79.9852 59.5228 78.6423 60.8653 76.9878 60.8653H61.0583C58.8016 60.8653 56.9727 59.0353 56.9727 56.7791C56.9727 57.9006 58.3597 58.9113 59.4802 58.9113H68.3433C71.6489 58.8791 74.3177 56.1891 74.3177 52.8767C74.3177 51.6942 73.9784 50.5917 73.3906 49.6613C74.9091 50.7948 75.8934 52.6069 75.8934 54.6481C75.8934 54.7939 75.8886 54.9395 75.8791 55.083C76.2219 54.9469 76.5958 54.8716 76.9877 54.8716C78.6423 54.8716 79.9852 56.213 79.9852 57.8684Z" fill="#D0EDF5"/>
<path d="M78.8281 39.5981H1.17188C0.524687 39.5981 0 40.1228 0 40.77C0 41.4172 0.524687 41.9419 1.17188 41.9419H78.8281C79.4753 41.9419 80 41.4172 80 40.77C80 40.1228 79.4753 39.5981 78.8281 39.5981Z" fill="#3A4B56"/>
<path d="M39.9443 0C39.2971 0 38.7725 0.524687 38.7725 1.17188V5.55141C38.7725 6.19859 39.2971 6.72328 39.9443 6.72328C40.5915 6.72328 41.1162 6.19859 41.1162 5.55141V1.17188C41.1162 0.524687 40.5915 0 39.9443 0V0Z" fill="#FFC54B"/>
<path d="M9.70457 34.6372H5.3291C4.68191 34.6372 4.15723 35.1619 4.15723 35.8091C4.15723 36.4563 4.68191 36.9809 5.3291 36.9809H9.70441C10.3516 36.9809 10.8763 36.4563 10.8763 35.8091C10.8763 35.1619 10.3518 34.6372 9.70457 34.6372Z" fill="#FFC54B"/>
<path d="M74.5599 34.6372H70.1846C69.5374 34.6372 69.0127 35.1619 69.0127 35.8091C69.0127 36.4563 69.5374 36.9809 70.1846 36.9809H74.5599C75.2071 36.9809 75.7318 36.4563 75.7318 35.8091C75.7318 35.1619 75.2071 34.6372 74.5599 34.6372Z" fill="#FFC54B"/>
<path d="M70.9368 17.8988C70.6129 17.3383 69.8962 17.1466 69.3359 17.4705L65.5467 19.6602C64.9864 19.9839 64.7945 20.7008 65.1184 21.2611C65.3356 21.6369 65.7293 21.8469 66.134 21.8469C66.3329 21.8469 66.5346 21.7961 66.7193 21.6894L70.5086 19.4997C71.069 19.1759 71.2607 18.4591 70.9368 17.8988Z" fill="#FFC54B"/>
<path d="M57.8379 4.78781C57.2772 4.46437 56.5607 4.65672 56.2372 5.21734L54.0496 9.01016C53.7261 9.57078 53.9185 10.2875 54.4791 10.6108C54.6636 10.7172 54.8649 10.7678 55.0636 10.7678C55.4688 10.7678 55.8629 10.5573 56.0797 10.1813L58.2674 6.38844C58.5908 5.82781 58.3985 5.11109 57.8379 4.78781Z" fill="#FFC54B"/>
<path d="M14.3416 19.6602L10.5523 17.4705C9.99203 17.1466 9.27531 17.3383 8.9514 17.8988C8.6275 18.4591 8.81937 19.1759 9.37968 19.4997L13.1689 21.6894C13.3536 21.7961 13.5552 21.8469 13.7542 21.8469C14.1591 21.8469 14.5528 21.6369 14.7698 21.2611C15.0938 20.7006 14.902 19.9839 14.3416 19.6602Z" fill="#FFC54B"/>
<path d="M23.652 5.2175C23.3286 4.65672 22.6117 4.46438 22.0514 4.78781C21.4908 5.1111 21.2985 5.82781 21.6217 6.38844L23.8094 10.1813C24.0264 10.5575 24.4205 10.7678 24.8255 10.7678C25.0241 10.7678 25.2255 10.7172 25.4099 10.6108C25.9705 10.2875 26.1628 9.57078 25.8396 9.01016L23.652 5.2175Z" fill="#FFC54B"/>
</g>
<defs>
<clipPath id="clip0_48_874">
<rect width="80" height="80" fill="white"/>
</clipPath>
</defs>
</svg>
