<svg width="80" height="80" viewBox="0 0 80 80" fill="none" xmlns="http://www.w3.org/2000/svg">
<g clip-path="url(#clip0_48_905)">
<path d="M2.66602 64V74.6667C2.66602 77.6122 5.05378 80 7.9993 80H71.9993C74.9448 80 77.3324 77.6122 77.3324 74.6667V64H2.66602Z" fill="#B5DBFF"/>
<path d="M73.63 64V74.6669C73.63 77.6122 71.2422 80 68.2969 80H71.9991C74.9446 80 77.3322 77.6122 77.3322 74.6669V64H73.63Z" fill="#97D0FF"/>
<path d="M2.66602 21.3333V69.3333C2.66602 72.2786 5.05378 74.6664 7.99913 74.6664H71.9993C74.9448 74.6664 77.3324 72.2786 77.3324 69.3333V21.3333H2.66602Z" fill="#EDF5FF"/>
<path d="M73.63 21.3333V69.3333C73.63 72.2786 71.2422 74.6664 68.2969 74.6664H71.9991C74.9446 74.6664 77.3322 72.2786 77.3322 69.3333V21.3333H73.63Z" fill="#D5E8FE"/>
<path d="M77.3324 24V10.6666C77.3324 7.72104 74.9446 5.33344 71.9993 5.33344H7.99913C5.05362 5.33344 2.66602 7.7212 2.66602 10.6666V24H77.3324Z" fill="#FF435B"/>
<path d="M18.666 11.874H15.9992C15.3325 11.874 14.792 11.3335 14.792 10.6667C14.792 10 15.3325 9.45949 15.9992 9.45949H18.666C19.3327 9.45949 19.8732 10 19.8732 10.6667C19.8732 11.3335 19.3327 11.874 18.666 11.874Z" fill="#E3374E"/>
<path d="M26.666 11.874H23.9992C23.3325 11.874 22.792 11.3335 22.792 10.6667C22.792 10 23.3325 9.45949 23.9992 9.45949H26.6658C27.3325 9.45949 27.873 10 27.873 10.6667C27.873 11.3335 27.3327 11.874 26.666 11.874Z" fill="#E3374E"/>
<path d="M55.9988 11.874H53.3322C52.6655 11.874 52.125 11.3335 52.125 10.6667C52.125 10 52.6655 9.45949 53.3322 9.45949H55.9988C56.6655 9.45949 57.206 10 57.206 10.6667C57.206 11.3335 56.6655 11.874 55.9988 11.874Z" fill="#E3374E"/>
<path d="M63.9999 11.874H61.3332C60.6665 11.874 60.126 11.3335 60.126 10.6667C60.126 10 60.6665 9.45949 61.3332 9.45949H63.9999C64.6667 9.45949 65.2072 10 65.2072 10.6667C65.2072 11.3335 64.6667 11.874 63.9999 11.874Z" fill="#E3374E"/>
<path d="M18.6652 10.6667C18.6652 12.1394 19.8591 13.3334 21.3319 13.3334C22.8048 13.3334 23.9986 12.1396 23.9986 10.6667V2.66672C23.9985 1.19389 22.8046 2.86102e-06 21.3318 2.86102e-06C19.8591 2.86102e-06 18.665 1.19389 18.665 2.66672V10.6667H18.6652Z" fill="#596C76"/>
<path d="M55.999 10.6667C55.999 12.1394 57.1929 13.3334 58.6657 13.3334C60.1386 13.3334 61.3325 12.1396 61.3325 10.6667V2.66672C61.3325 1.19389 60.1386 2.86102e-06 58.6657 2.86102e-06C57.1929 2.86102e-06 55.999 1.19389 55.999 2.66672V10.6667Z" fill="#596C76"/>
<path d="M71.9991 5.33328H68.2969C71.2424 5.33328 73.63 7.72105 73.63 10.6664V24H77.3322V10.6666C77.3324 7.72105 74.9446 5.33328 71.9991 5.33328Z" fill="#E3374E"/>
<path d="M2.66602 17.4595H77.3326V19.874H2.66602V17.4595Z" fill="#E3374E"/>
<path d="M41.333 42.001C41.333 36.4869 36.8471 32.001 31.333 32.001C25.819 32.001 21.333 36.4869 21.333 42.001C21.333 43.4738 22.5269 44.6677 23.9997 44.6677C25.4726 44.6677 26.6665 43.4738 26.6665 42.001C26.6665 39.4278 28.7598 37.3343 31.3332 37.3343C33.9064 37.3343 35.9999 39.4276 35.9999 42.001C35.9999 44.5743 33.9065 46.6677 31.3332 46.6677C29.8603 46.6677 28.6665 47.8616 28.6665 49.3344C28.6665 50.8073 29.8603 52.0011 31.3332 52.0011C33.9064 52.0011 35.9999 54.0945 35.9999 56.6679C35.9999 59.2411 33.9065 61.3346 31.3332 61.3346C28.76 61.3346 26.6665 59.2412 26.6665 56.6679C26.6665 55.195 25.4726 54.0011 23.9997 54.0011C22.5269 54.0011 21.333 55.195 21.333 56.6679C21.333 62.1819 25.819 66.6679 31.333 66.6679C36.8471 66.6679 41.333 62.1819 41.333 56.6679C41.333 53.7727 40.095 51.1623 38.1222 49.3346C40.0952 47.5065 41.333 44.8961 41.333 42.001Z" fill="#596C76"/>
<path d="M54.1455 32.203C53.1489 31.79 52.0019 32.0185 51.2394 32.7812L45.9061 38.1145C44.8646 39.1557 44.8646 40.8443 45.9061 41.8856C46.9474 42.9268 48.6359 42.9268 49.6772 41.8856L50.4584 41.1044V64C50.4584 65.4728 51.6523 66.6667 53.1251 66.6667C54.5979 66.6667 55.7918 65.4728 55.7918 64V34.6667C55.7917 33.5881 55.1418 32.6157 54.1455 32.203Z" fill="#596C76"/>
</g>
<defs>
<clipPath id="clip0_48_905">
<rect width="80" height="80" fill="white"/>
</clipPath>
</defs>
</svg>
