<svg width="20" height="20" viewBox="0 0 20 20" fill="none" xmlns="http://www.w3.org/2000/svg">
<g clip-path="url(#clip0_17_3439)">
<path d="M17.8162 14.0942C16.5562 13.0292 15.8337 11.4725 15.8337 9.82333V7.5C15.8337 4.5675 13.6553 2.14 10.8337 1.73333V0.833333C10.8337 0.3725 10.4603 0 10.0003 0C9.54033 0 9.16699 0.3725 9.16699 0.833333V1.73333C6.34449 2.14 4.16699 4.5675 4.16699 7.5V9.82333C4.16699 11.4725 3.44449 13.0292 2.17699 14.1008C1.85283 14.3783 1.66699 14.7817 1.66699 15.2083C1.66699 16.0125 2.32116 16.6667 3.12533 16.6667H16.8753C17.6795 16.6667 18.3337 16.0125 18.3337 15.2083C18.3337 14.7817 18.1478 14.3783 17.8162 14.0942Z" fill="#925FA4"/>
<path d="M10.0001 20C11.5093 20 12.7718 18.9242 13.0618 17.5H6.93848C7.22848 18.9242 8.49098 20 10.0001 20Z" fill="#925FA4"/>
</g>
<defs>
<clipPath id="clip0_17_3439">
<rect width="20" height="20" fill="white"/>
</clipPath>
</defs>
</svg>
