<svg width="20" height="20" viewBox="0 0 20 20" fill="none" xmlns="http://www.w3.org/2000/svg">
<g clip-path="url(#clip0_10117_1136)">
<path d="M15.8323 0H4.22803C3.28295 0 2.45312 0.777476 2.45312 1.69775V18.8639C2.45312 19.172 2.53886 19.4287 2.67704 19.6271C2.84229 19.8642 3.10836 20.0001 3.39368 20C3.66343 20 3.95064 19.8799 4.21586 19.6534L9.40759 15.2453C9.56794 15.1084 9.79826 15.0299 10.0377 15.0299C10.2771 15.0299 10.507 15.1084 10.6678 15.2457L15.8422 19.6527C16.1083 19.8799 16.3757 20.0001 16.645 20.0001C17.1004 20.0001 17.5443 19.6488 17.5443 18.864V1.69775C17.5443 0.777476 16.7773 0 15.8323 0Z" fill="#42204E"/>
</g>
<defs>
<clipPath id="clip0_10117_1136">
<rect width="20" height="20" fill="white"/>
</clipPath>
</defs>
</svg>
