<svg width="76" height="80" viewBox="0 0 76 80" fill="none" xmlns="http://www.w3.org/2000/svg">
<path d="M69.5632 27.7812L63.1882 18.2188C62.6257 17.375 61.5477 16.953 60.5632 17.2812C59.5786 17.5625 58.8757 18.5 58.8757 19.5314C58.8757 24.125 58.1724 28.7188 56.86 33.1719C55.735 29.9375 53.5788 27.0781 50.6255 25.1561C45.4224 21.6873 44.0163 14.9061 47.485 9.70312L51.5632 3.60938C52.0318 2.90609 52.0788 1.96859 51.6568 1.21875C51.2819 0.468594 50.4849 0 49.5942 0C45.4697 0 41.5789 0.796719 37.9696 2.24984C26.9541 6.65609 18.9852 16.8594 18.2354 29.2811C17.4852 27.2655 17.0635 25.1092 17.0635 22.9061V13.7188C17.0635 12.6877 16.3602 11.7502 15.3758 11.4689C14.3916 11.1408 13.3133 11.5628 12.7508 12.4064L9.61035 17.1408C3.79785 25.8595 0.750977 35.9844 0.750977 46.4377C0.750664 64.953 15.7977 80 34.3133 80H41.6258C60.1411 80 75.2507 64.953 75.2507 46.4377C75.2507 39.7811 73.2664 33.3123 69.5632 27.7812Z" fill="#FE9923"/>
</svg>
