<svg width="20" height="20" viewBox="0 0 20 20" fill="none" xmlns="http://www.w3.org/2000/svg">
<g clip-path="url(#clip0_10117_1126)">
<path d="M2.65113 0.63088C1.60435 0.555326 0.628906 1.39289 0.628906 2.49905V17.5276C0.628906 18.5782 1.50823 19.4369 2.56065 19.4031C2.56228 19.4031 2.56392 19.4031 2.56555 19.4031C2.74461 19.396 2.92578 19.3649 3.10105 19.3065L6.85329 18.0533C7.61618 17.7987 8.13827 17.0828 8.13827 16.2744V14.394H7.51473C5.80797 14.3942 4.38091 12.9671 4.38114 11.2604V8.76134C4.38091 7.05456 5.80797 5.6324 7.51473 5.63264H8.13827V3.75713C8.13827 2.9487 7.61705 2.22813 6.85329 1.97332L3.10105 0.720131C2.95122 0.670136 2.80067 0.641673 2.65113 0.63088ZM12.6681 4.39534C12.33 4.37627 11.9916 4.45181 11.6912 4.60197C11.0904 4.90237 10.6373 5.50138 10.6373 6.25618V6.88461H7.51473C6.48481 6.88461 5.63311 7.7314 5.63311 8.76134V11.2604C5.63311 12.2903 6.48481 13.142 7.51473 13.142H10.6373V13.7655C10.6373 15.2751 12.4385 16.1776 13.6462 15.2718L18.6553 11.5147C19.1422 11.1495 19.4209 10.5701 19.4035 9.96196C19.3872 9.39172 19.1135 8.85553 18.6553 8.51192L13.6462 4.7548C13.3443 4.52835 13.0062 4.41442 12.6681 4.39534Z" fill="#42204E"/>
</g>
<defs>
<clipPath id="clip0_10117_1126">
<rect width="20" height="20" fill="white"/>
</clipPath>
</defs>
</svg>
