<svg width="26" height="26" viewBox="0 0 26 26" fill="none" xmlns="http://www.w3.org/2000/svg">
<path d="M24.0528 4.48276H1.94721C0.871762 4.48276 0 5.35452 0 6.42996V19.5701C0 20.6455 0.871762 21.5173 1.94721 21.5173H24.0528C25.1282 21.5173 26 20.6455 26 19.5701V6.42996C26 5.35452 25.1282 4.48276 24.0528 4.48276Z" fill="#F5F5F5"/>
<path d="M0.107117 5.79312H25.8929C25.629 5.03054 24.9051 4.48276 24.0528 4.48276H1.94722C1.09491 4.48276 0.371027 5.03054 0.107117 5.79312Z" fill="#FF4B55"/>
<path d="M26 9.72409H0V11.0344H26V9.72409Z" fill="#FF4B55"/>
<path d="M26 7.10327H0V8.41358H26V7.10327Z" fill="#FF4B55"/>
<path d="M0 13.2069C0 13.4544 0.200738 13.6552 0.448297 13.6552H26V12.3448H0V13.2069Z" fill="#FF4B55"/>
<path d="M26 17.5865H0V18.8969H26V17.5865Z" fill="#FF4B55"/>
<path d="M25.8929 20.2068H0.107117C0.371027 20.9694 1.09496 21.5172 1.94722 21.5172H24.0528C24.9051 21.5172 25.629 20.9694 25.8929 20.2068Z" fill="#FF4B55"/>
<path d="M26 14.9657H0V16.276H26V14.9657Z" fill="#FF4B55"/>
<path d="M0.448297 13.6552H11.6552C11.9028 13.6552 12.1035 13.4545 12.1035 13.2069V4.93102C12.1035 4.68341 11.9028 4.48273 11.6552 4.48273H1.94721C0.871762 4.48278 0 5.35454 0 6.42998V13.2069C0 13.4545 0.200738 13.6552 0.448297 13.6552Z" fill="#41479B"/>
<path d="M1.2588 5.51178L1.35803 5.80936L1.6717 5.81175C1.71233 5.8121 1.72914 5.8639 1.69649 5.88802L1.44415 6.07434L1.53881 6.37339C1.5511 6.41208 1.50697 6.44418 1.47391 6.42051L1.21874 6.23816L0.963562 6.42056C0.930503 6.44423 0.886476 6.41213 0.898663 6.37344L0.993319 6.07439L0.740988 5.88807C0.708336 5.8639 0.725144 5.8121 0.765769 5.8118L1.07944 5.80941L1.17867 5.51183C1.19147 5.47324 1.2459 5.47324 1.2588 5.51178Z" fill="#F5F5F5"/>
<path d="M1.2588 7.06829L1.35803 7.36587L1.6717 7.36826C1.71233 7.36862 1.72914 7.42036 1.69649 7.44453L1.44415 7.6309L1.53881 7.92996C1.5511 7.96865 1.50697 8.00075 1.47391 7.97708L1.21874 7.79473L0.963562 7.97713C0.930503 8.00075 0.886476 7.9687 0.898663 7.93001L0.993319 7.63095L0.740988 7.44458C0.708336 7.42041 0.725144 7.36867 0.765769 7.36831L1.07944 7.36592L1.17867 7.06834C1.19147 7.0298 1.2459 7.0298 1.2588 7.06829Z" fill="#F5F5F5"/>
<path d="M1.2588 8.62503L1.35803 8.92261L1.6717 8.925C1.71233 8.92535 1.72914 8.9771 1.69649 9.00127L1.44415 9.18764L1.53881 9.48669C1.5511 9.52538 1.50697 9.55748 1.47391 9.53382L1.21874 9.35146L0.963562 9.53387C0.930503 9.55748 0.886476 9.52549 0.898663 9.48674L0.993319 9.18769L0.740988 9.00132C0.708336 8.97715 0.725144 8.9254 0.765769 8.92505L1.07944 8.92266L1.17867 8.62508C1.19147 8.58649 1.2459 8.58649 1.2588 8.62503Z" fill="#F5F5F5"/>
<path d="M1.2588 10.1816L1.35803 10.4792L1.6717 10.4816C1.71233 10.482 1.72914 10.5338 1.69649 10.5579L1.44415 10.7442L1.53881 11.0433C1.5511 11.082 1.50697 11.1141 1.47391 11.0904L1.21874 10.9081L0.963562 11.0905C0.930503 11.1141 0.886476 11.082 0.898663 11.0433L0.993319 10.7443L0.740988 10.5579C0.708336 10.5339 0.725144 10.482 0.765769 10.4817L1.07944 10.4793L1.17867 10.1817C1.19147 10.1431 1.2459 10.1431 1.2588 10.1816Z" fill="#F5F5F5"/>
<path d="M1.2588 11.7383L1.35803 12.0359L1.6717 12.0383C1.71233 12.0386 1.72914 12.0904 1.69649 12.1145L1.44415 12.3009L1.53881 12.6C1.5511 12.6387 1.50697 12.6707 1.47391 12.6471L1.21874 12.4647L0.963562 12.6471C0.930503 12.6707 0.886476 12.6387 0.898663 12.6L0.993319 12.301L0.740988 12.1146C0.708336 12.0904 0.725144 12.0387 0.765769 12.0383L1.07944 12.0359L1.17867 11.7384C1.19147 11.6998 1.2459 11.6998 1.2588 11.7383Z" fill="#F5F5F5"/>
<path d="M2.46706 6.27484L2.56628 6.57242L2.87996 6.57481C2.92058 6.57516 2.93739 6.62696 2.90474 6.65108L2.65241 6.83745L2.74706 7.1365C2.75935 7.1752 2.71522 7.20729 2.68216 7.18363L2.42699 7.00122L2.17181 7.18363C2.13876 7.20724 2.09473 7.1752 2.10692 7.1365L2.20157 6.83745L1.94924 6.65108C1.91659 6.62691 1.9334 6.57516 1.97402 6.57481L2.2877 6.57242L2.38692 6.27484C2.39972 6.23635 2.45421 6.23635 2.46706 6.27484Z" fill="#F5F5F5"/>
<path d="M2.46706 7.83158L2.56628 8.12916L2.87996 8.13155C2.92058 8.1319 2.93739 8.1837 2.90474 8.20782L2.65241 8.39419L2.74706 8.69324C2.75935 8.73193 2.71522 8.76403 2.68216 8.74036L2.42699 8.55796L2.17181 8.74036C2.13876 8.76398 2.09473 8.73198 2.10692 8.69324L2.20157 8.39419L1.94924 8.20782C1.91659 8.18375 1.9334 8.1319 1.97402 8.13155L2.2877 8.12916L2.38692 7.83158C2.39972 7.79304 2.45421 7.79304 2.46706 7.83158Z" fill="#F5F5F5"/>
<path d="M2.46706 9.38819L2.56628 9.68577L2.87996 9.68816C2.92058 9.68851 2.93739 9.74026 2.90474 9.76443L2.65241 9.9508L2.74706 10.2499C2.75935 10.2885 2.71522 10.3206 2.68216 10.297L2.42699 10.1146L2.17181 10.297C2.13876 10.3206 2.09473 10.2885 2.10692 10.2499L2.20157 9.9508L1.94924 9.76443C1.91659 9.74026 1.9334 9.68851 1.97402 9.68816L2.2877 9.68577L2.38692 9.38819C2.39972 9.34965 2.45421 9.34965 2.46706 9.38819Z" fill="#F5F5F5"/>
<path d="M2.46706 10.9448L2.56628 11.2424L2.87996 11.2448C2.92058 11.2451 2.93739 11.2969 2.90474 11.3211L2.65241 11.5074L2.74706 11.8065C2.75935 11.8452 2.71522 11.8773 2.68216 11.8536L2.42699 11.6712L2.17181 11.8536C2.13876 11.8773 2.09473 11.8452 2.10692 11.8065L2.20157 11.5074L1.94924 11.3211C1.91659 11.2969 1.9334 11.2451 1.97402 11.2448L2.2877 11.2424L2.38692 10.9448C2.39972 10.9063 2.45421 10.9063 2.46706 10.9448Z" fill="#F5F5F5"/>
<path d="M3.67531 5.51166L3.77453 5.80924L4.08821 5.81163C4.12883 5.81199 4.14564 5.86378 4.11299 5.8879L3.86066 6.07422L3.95531 6.37327C3.9676 6.41197 3.92347 6.44406 3.89042 6.4204L3.63524 6.23799L3.38007 6.4204C3.34701 6.44406 3.30298 6.41197 3.31517 6.37327L3.40982 6.07422L3.15749 5.8879C3.12484 5.86373 3.14165 5.81193 3.18227 5.81163L3.49595 5.80924L3.59517 5.51166C3.60797 5.47312 3.66246 5.47312 3.67531 5.51166Z" fill="#F5F5F5"/>
<path d="M3.67531 7.0683L3.77453 7.36588L4.08821 7.36826C4.12883 7.36862 4.14564 7.42036 4.11299 7.44454L3.86066 7.6309L3.95531 7.92995C3.9676 7.96865 3.92347 8.00074 3.89042 7.97708L3.63524 7.79467L3.38007 7.97708C3.34701 8.00069 3.30298 7.96865 3.31517 7.92995L3.40982 7.6309L3.15749 7.44454C3.12484 7.42036 3.14165 7.36862 3.18227 7.36826L3.49595 7.36588L3.59517 7.0683C3.60797 7.02981 3.66246 7.02981 3.67531 7.0683Z" fill="#F5F5F5"/>
<path d="M3.67531 8.62504L3.77453 8.92262L4.08821 8.925C4.12883 8.92536 4.14564 8.9771 4.11299 9.00128L3.86066 9.18764L3.95531 9.48669C3.9676 9.52539 3.92347 9.55748 3.89042 9.53382L3.63524 9.35141L3.38007 9.53382C3.34701 9.55743 3.30298 9.52544 3.31517 9.48669L3.40982 9.18764L3.15749 9.00128C3.12484 8.9771 3.14165 8.92536 3.18227 8.925L3.49595 8.92262L3.59517 8.62504C3.60797 8.58649 3.66246 8.58649 3.67531 8.62504Z" fill="#F5F5F5"/>
<path d="M3.67531 10.1816L3.77453 10.4792L4.08821 10.4816C4.12883 10.482 4.14564 10.5338 4.11299 10.5579L3.86066 10.7443L3.95531 11.0433C3.9676 11.082 3.92347 11.1141 3.89042 11.0904L3.63524 10.908L3.38007 11.0904C3.34701 11.114 3.30298 11.082 3.31517 11.0433L3.40982 10.7443L3.15749 10.5579C3.12484 10.5338 3.14165 10.482 3.18227 10.4816L3.49595 10.4792L3.59517 10.1816C3.60797 10.1431 3.66246 10.1431 3.67531 10.1816Z" fill="#F5F5F5"/>
<path d="M3.67531 11.7383L3.77453 12.0359L4.08821 12.0382C4.12883 12.0386 4.14564 12.0903 4.11299 12.1145L3.86066 12.3009L3.95531 12.5999C3.9676 12.6386 3.92347 12.6707 3.89042 12.6471L3.63524 12.4647L3.38007 12.6471C3.34701 12.6707 3.30298 12.6386 3.31517 12.5999L3.40982 12.3009L3.15749 12.1145C3.12484 12.0903 3.14165 12.0386 3.18227 12.0382L3.49595 12.0359L3.59517 11.7383C3.60797 11.6998 3.66246 11.6998 3.67531 11.7383Z" fill="#F5F5F5"/>
<path d="M4.88356 6.27484L4.98279 6.57242L5.29646 6.57481C5.33709 6.57516 5.3539 6.62696 5.32124 6.65108L5.06891 6.83745L5.16357 7.1365C5.17586 7.1752 5.13173 7.20729 5.09867 7.18363L4.84349 7.00122L4.58832 7.18363C4.55526 7.20724 4.51123 7.1752 4.52342 7.1365L4.61808 6.83745L4.36574 6.65108C4.33309 6.62691 4.3499 6.57516 4.39053 6.57481L4.7042 6.57242L4.80343 6.27484C4.81617 6.23635 4.87071 6.23635 4.88356 6.27484Z" fill="#F5F5F5"/>
<path d="M4.88356 7.83158L4.98279 8.12916L5.29646 8.13155C5.33709 8.1319 5.3539 8.1837 5.32124 8.20782L5.06891 8.39419L5.16357 8.69324C5.17586 8.73193 5.13173 8.76403 5.09867 8.74036L4.84349 8.55796L4.58832 8.74036C4.55526 8.76398 4.51123 8.73198 4.52342 8.69324L4.61808 8.39419L4.36574 8.20782C4.33309 8.18375 4.3499 8.1319 4.39053 8.13155L4.7042 8.12916L4.80343 7.83158C4.81617 7.79304 4.87071 7.79304 4.88356 7.83158Z" fill="#F5F5F5"/>
<path d="M4.88356 9.38819L4.98279 9.68577L5.29646 9.68816C5.33709 9.68851 5.3539 9.74026 5.32124 9.76443L5.06891 9.9508L5.16357 10.2499C5.17586 10.2885 5.13173 10.3206 5.09867 10.297L4.84349 10.1146L4.58832 10.297C4.55526 10.3206 4.51123 10.2885 4.52342 10.2499L4.61808 9.9508L4.36574 9.76443C4.33309 9.74026 4.3499 9.68851 4.39053 9.68816L4.7042 9.68577L4.80343 9.38819C4.81617 9.34965 4.87071 9.34965 4.88356 9.38819Z" fill="#F5F5F5"/>
<path d="M4.88356 10.9448L4.98279 11.2424L5.29646 11.2448C5.33709 11.2451 5.3539 11.2969 5.32124 11.3211L5.06891 11.5074L5.16357 11.8065C5.17586 11.8452 5.13173 11.8773 5.09867 11.8536L4.84349 11.6712L4.58832 11.8536C4.55526 11.8773 4.51123 11.8452 4.52342 11.8065L4.61808 11.5074L4.36574 11.3211C4.33309 11.2969 4.3499 11.2451 4.39053 11.2448L4.7042 11.2424L4.80343 10.9448C4.81617 10.9063 4.87071 10.9063 4.88356 10.9448Z" fill="#F5F5F5"/>
<path d="M6.0918 5.51166L6.19103 5.80924L6.50471 5.81162C6.54533 5.81198 6.56214 5.86378 6.52949 5.8879L6.27715 6.07421L6.37181 6.37326C6.3841 6.41196 6.33997 6.44405 6.30691 6.42039L6.05169 6.23803L5.79651 6.42044C5.76345 6.4441 5.71942 6.41201 5.73161 6.37331L5.82627 6.07426L5.57393 5.88795C5.54128 5.86378 5.55809 5.81198 5.59872 5.81167L5.91239 5.80929L6.01162 5.51171C6.02447 5.47312 6.07896 5.47312 6.0918 5.51166Z" fill="#F5F5F5"/>
<path d="M6.0918 7.0683L6.19103 7.36588L6.50471 7.36826C6.54533 7.36862 6.56214 7.42036 6.52949 7.44454L6.27715 7.6309L6.37181 7.92995C6.3841 7.96865 6.33997 8.00074 6.30691 7.97708L6.05169 7.79467L5.79651 7.97708C5.76345 8.00069 5.71942 7.96865 5.73161 7.92995L5.82627 7.6309L5.57393 7.44454C5.54128 7.42036 5.55809 7.36862 5.59872 7.36826L5.91239 7.36588L6.01162 7.0683C6.02447 7.02981 6.07896 7.02981 6.0918 7.0683Z" fill="#F5F5F5"/>
<path d="M6.0918 8.62501L6.19103 8.92259L6.50471 8.92498C6.54533 8.92533 6.56214 8.97708 6.52949 9.00125L6.27715 9.18762L6.37181 9.48667C6.3841 9.52536 6.33997 9.55746 6.30691 9.53379L6.05169 9.35134L5.79651 9.53374C5.76345 9.55736 5.71942 9.52531 5.73161 9.48662L5.82627 9.18757L5.57393 9.0012C5.54128 8.97703 5.55809 8.92528 5.59872 8.92493L5.91239 8.92254L6.01162 8.62496C6.02447 8.58647 6.07896 8.58647 6.0918 8.62501Z" fill="#F5F5F5"/>
<path d="M6.0918 10.1816L6.19103 10.4792L6.50471 10.4816C6.54533 10.482 6.56214 10.5338 6.52949 10.5579L6.27715 10.7443L6.37181 11.0433C6.3841 11.082 6.33997 11.1141 6.30691 11.0904L6.05169 10.908L5.79651 11.0904C5.76345 11.114 5.71942 11.082 5.73161 11.0433L5.82627 10.7443L5.57393 10.5579C5.54128 10.5338 5.55809 10.482 5.59872 10.4816L5.91239 10.4792L6.01162 10.1816C6.02447 10.1431 6.07896 10.1431 6.0918 10.1816Z" fill="#F5F5F5"/>
<path d="M6.0918 11.7383L6.19103 12.0359L6.50471 12.0382C6.54533 12.0386 6.56214 12.0903 6.52949 12.1145L6.27715 12.3009L6.37181 12.5999C6.3841 12.6386 6.33997 12.6707 6.30691 12.6471L6.05169 12.4647L5.79651 12.6471C5.76345 12.6707 5.71942 12.6386 5.73161 12.5999L5.82627 12.3009L5.57393 12.1145C5.54128 12.0903 5.55809 12.0386 5.59872 12.0382L5.91239 12.0359L6.01162 11.7383C6.02447 11.6998 6.07896 11.6998 6.0918 11.7383Z" fill="#F5F5F5"/>
<path d="M7.30006 6.27484L7.39928 6.57242L7.71296 6.57481C7.75358 6.57516 7.77039 6.62696 7.73774 6.65108L7.48541 6.83745L7.58006 7.1365C7.59235 7.1752 7.54822 7.20729 7.51517 7.18363L7.25999 7.00122L7.00482 7.18363C6.97176 7.20724 6.92773 7.1752 6.93992 7.1365L7.03458 6.83745L6.78225 6.65108C6.7496 6.62691 6.7664 6.57516 6.80703 6.57481L7.1207 6.57242L7.21993 6.27484C7.23277 6.23635 7.28721 6.23635 7.30006 6.27484Z" fill="#F5F5F5"/>
<path d="M7.30006 7.83158L7.39928 8.12916L7.71296 8.13155C7.75358 8.1319 7.77039 8.1837 7.73774 8.20782L7.48541 8.39419L7.58006 8.69324C7.59235 8.73193 7.54822 8.76403 7.51517 8.74036L7.25999 8.55796L7.00482 8.74036C6.97176 8.76398 6.92773 8.73198 6.93992 8.69324L7.03458 8.39419L6.78225 8.20782C6.7496 8.18375 6.7664 8.1319 6.80703 8.13155L7.1207 8.12916L7.21993 7.83158C7.23277 7.79304 7.28721 7.79304 7.30006 7.83158Z" fill="#F5F5F5"/>
<path d="M7.30006 9.38819L7.39928 9.68577L7.71296 9.68816C7.75358 9.68851 7.77039 9.74026 7.73774 9.76443L7.48541 9.9508L7.58006 10.2499C7.59235 10.2885 7.54822 10.3206 7.51517 10.297L7.25999 10.1146L7.00482 10.297C6.97176 10.3206 6.92773 10.2885 6.93992 10.2499L7.03458 9.9508L6.78225 9.76443C6.7496 9.74026 6.7664 9.68851 6.80703 9.68816L7.1207 9.68577L7.21993 9.38819C7.23277 9.34965 7.28721 9.34965 7.30006 9.38819Z" fill="#F5F5F5"/>
<path d="M7.30006 10.9448L7.39928 11.2424L7.71296 11.2448C7.75358 11.2451 7.77039 11.2969 7.73774 11.3211L7.48541 11.5074L7.58006 11.8065C7.59235 11.8452 7.54822 11.8773 7.51517 11.8536L7.25999 11.6712L7.00482 11.8536C6.97176 11.8773 6.92773 11.8452 6.93992 11.8065L7.03458 11.5074L6.78225 11.3211C6.7496 11.2969 6.7664 11.2451 6.80703 11.2448L7.1207 11.2424L7.21993 10.9448C7.23277 10.9063 7.28721 10.9063 7.30006 10.9448Z" fill="#F5F5F5"/>
<path d="M8.50837 5.51166L8.6076 5.80924L8.92127 5.81163C8.96189 5.81199 8.9787 5.86378 8.94605 5.8879L8.69372 6.07422L8.78838 6.37327C8.80067 6.41197 8.75654 6.44406 8.72348 6.4204L8.46831 6.23799L8.21313 6.4204C8.18007 6.44406 8.13605 6.41197 8.14823 6.37327L8.24289 6.07422L7.99056 5.8879C7.95791 5.86373 7.97472 5.81193 8.01534 5.81163L8.32901 5.80924L8.42824 5.51166C8.44099 5.47312 8.49552 5.47312 8.50837 5.51166Z" fill="#F5F5F5"/>
<path d="M8.50837 7.0683L8.6076 7.36588L8.92127 7.36826C8.96189 7.36862 8.9787 7.42036 8.94605 7.44454L8.69372 7.6309L8.78838 7.92995C8.80067 7.96865 8.75654 8.00074 8.72348 7.97708L8.46831 7.79467L8.21313 7.97708C8.18007 8.00069 8.13605 7.96865 8.14823 7.92995L8.24289 7.6309L7.99056 7.44454C7.95791 7.42036 7.97472 7.36862 8.01534 7.36826L8.32901 7.36588L8.42824 7.0683C8.44099 7.02981 8.49552 7.02981 8.50837 7.0683Z" fill="#F5F5F5"/>
<path d="M8.50837 8.62504L8.6076 8.92262L8.92127 8.925C8.96189 8.92536 8.9787 8.9771 8.94605 9.00128L8.69372 9.18764L8.78838 9.48669C8.80067 9.52539 8.75654 9.55748 8.72348 9.53382L8.46831 9.35141L8.21313 9.53382C8.18007 9.55743 8.13605 9.52544 8.14823 9.48669L8.24289 9.18764L7.99056 9.00128C7.95791 8.9771 7.97472 8.92536 8.01534 8.925L8.32901 8.92262L8.42824 8.62504C8.44099 8.58649 8.49552 8.58649 8.50837 8.62504Z" fill="#F5F5F5"/>
<path d="M8.50837 10.1816L8.6076 10.4792L8.92127 10.4816C8.96189 10.482 8.9787 10.5338 8.94605 10.5579L8.69372 10.7443L8.78838 11.0433C8.80067 11.082 8.75654 11.1141 8.72348 11.0904L8.46831 10.908L8.21313 11.0904C8.18007 11.114 8.13605 11.082 8.14823 11.0433L8.24289 10.7443L7.99056 10.5579C7.95791 10.5338 7.97472 10.482 8.01534 10.4816L8.32901 10.4792L8.42824 10.1816C8.44099 10.1431 8.49552 10.1431 8.50837 10.1816Z" fill="#F5F5F5"/>
<path d="M8.50837 11.7383L8.6076 12.0359L8.92127 12.0382C8.96189 12.0386 8.9787 12.0903 8.94605 12.1145L8.69372 12.3009L8.78838 12.5999C8.80067 12.6386 8.75654 12.6707 8.72348 12.6471L8.46831 12.4647L8.21313 12.6471C8.18007 12.6707 8.13605 12.6386 8.14823 12.5999L8.24289 12.3009L7.99056 12.1145C7.95791 12.0903 7.97472 12.0386 8.01534 12.0382L8.32901 12.0359L8.42824 11.7383C8.44099 11.6998 8.49552 11.6998 8.50837 11.7383Z" fill="#F5F5F5"/>
<path d="M9.71657 6.27484L9.81579 6.57242L10.1295 6.57481C10.1701 6.57516 10.1869 6.62696 10.1542 6.65108L9.90192 6.83745L9.99657 7.1365C10.0089 7.1752 9.96473 7.20729 9.93167 7.18363L9.6765 7.00122L9.42132 7.18363C9.38827 7.20724 9.34424 7.1752 9.35643 7.1365L9.45108 6.83745L9.19875 6.65108C9.1661 6.62691 9.18291 6.57516 9.22353 6.57481L9.53721 6.57242L9.63643 6.27484C9.64923 6.23635 9.70372 6.23635 9.71657 6.27484Z" fill="#F5F5F5"/>
<path d="M9.71657 7.83158L9.81579 8.12916L10.1295 8.13155C10.1701 8.1319 10.1869 8.1837 10.1542 8.20782L9.90192 8.39419L9.99657 8.69324C10.0089 8.73193 9.96473 8.76403 9.93167 8.74036L9.6765 8.55796L9.42132 8.74036C9.38827 8.76398 9.34424 8.73198 9.35643 8.69324L9.45108 8.39419L9.19875 8.20782C9.1661 8.18375 9.18291 8.1319 9.22353 8.13155L9.53721 8.12916L9.63643 7.83158C9.64923 7.79304 9.70372 7.79304 9.71657 7.83158Z" fill="#F5F5F5"/>
<path d="M9.71657 9.38819L9.81579 9.68577L10.1295 9.68816C10.1701 9.68851 10.1869 9.74026 10.1542 9.76443L9.90192 9.9508L9.99657 10.2499C10.0089 10.2885 9.96473 10.3206 9.93167 10.297L9.6765 10.1146L9.42132 10.297C9.38827 10.3206 9.34424 10.2885 9.35643 10.2499L9.45108 9.9508L9.19875 9.76443C9.1661 9.74026 9.18291 9.68851 9.22353 9.68816L9.53721 9.68577L9.63643 9.38819C9.64923 9.34965 9.70372 9.34965 9.71657 9.38819Z" fill="#F5F5F5"/>
<path d="M9.71657 10.9448L9.81579 11.2424L10.1295 11.2448C10.1701 11.2451 10.1869 11.2969 10.1542 11.3211L9.90192 11.5074L9.99657 11.8065C10.0089 11.8452 9.96473 11.8773 9.93167 11.8536L9.6765 11.6712L9.42132 11.8536C9.38827 11.8773 9.34424 11.8452 9.35643 11.8065L9.45108 11.5074L9.19875 11.3211C9.1661 11.2969 9.18291 11.2451 9.22353 11.2448L9.53721 11.2424L9.63643 10.9448C9.64923 10.9063 9.70372 10.9063 9.71657 10.9448Z" fill="#F5F5F5"/>
<path d="M10.9249 5.51166L11.0241 5.80924L11.3378 5.81163C11.3784 5.81199 11.3952 5.86378 11.3626 5.8879L11.1102 6.07422L11.2049 6.37327C11.2172 6.41197 11.1731 6.44406 11.14 6.4204L10.8848 6.23799L10.6296 6.4204C10.5966 6.44406 10.5526 6.41197 10.5647 6.37327L10.6594 6.07422L10.4071 5.8879C10.3744 5.86373 10.3912 5.81193 10.4318 5.81163L10.7455 5.80924L10.8447 5.51166C10.8575 5.47312 10.912 5.47312 10.9249 5.51166Z" fill="#F5F5F5"/>
<path d="M10.9249 7.0683L11.0241 7.36588L11.3378 7.36826C11.3784 7.36862 11.3952 7.42036 11.3626 7.44454L11.1102 7.6309L11.2049 7.92995C11.2172 7.96865 11.1731 8.00074 11.14 7.97708L10.8848 7.79467L10.6296 7.97708C10.5966 8.00069 10.5526 7.96865 10.5647 7.92995L10.6594 7.6309L10.4071 7.44454C10.3744 7.42036 10.3912 7.36862 10.4318 7.36826L10.7455 7.36588L10.8447 7.0683C10.8575 7.02981 10.912 7.02981 10.9249 7.0683Z" fill="#F5F5F5"/>
<path d="M10.9249 8.62504L11.0241 8.92262L11.3378 8.925C11.3784 8.92536 11.3952 8.9771 11.3626 9.00128L11.1102 9.18764L11.2049 9.48669C11.2172 9.52539 11.1731 9.55748 11.14 9.53382L10.8848 9.35141L10.6296 9.53382C10.5966 9.55743 10.5526 9.52544 10.5647 9.48669L10.6594 9.18764L10.4071 9.00128C10.3744 8.9771 10.3912 8.92536 10.4318 8.925L10.7455 8.92262L10.8447 8.62504C10.8575 8.58649 10.912 8.58649 10.9249 8.62504Z" fill="#F5F5F5"/>
<path d="M10.9249 10.1816L11.0241 10.4792L11.3378 10.4816C11.3784 10.482 11.3952 10.5338 11.3626 10.5579L11.1102 10.7443L11.2049 11.0433C11.2172 11.082 11.1731 11.1141 11.14 11.0904L10.8848 10.908L10.6296 11.0904C10.5966 11.114 10.5526 11.082 10.5647 11.0433L10.6594 10.7443L10.4071 10.5579C10.3744 10.5338 10.3912 10.482 10.4318 10.4816L10.7455 10.4792L10.8447 10.1816C10.8575 10.1431 10.912 10.1431 10.9249 10.1816Z" fill="#F5F5F5"/>
<path d="M10.9249 11.7383L11.0241 12.0359L11.3378 12.0382C11.3784 12.0386 11.3952 12.0903 11.3626 12.1145L11.1102 12.3009L11.2049 12.5999C11.2172 12.6386 11.1731 12.6707 11.14 12.6471L10.8848 12.4647L10.6296 12.6471C10.5966 12.6707 10.5526 12.6386 10.5647 12.5999L10.6594 12.3009L10.4071 12.1145C10.3744 12.0903 10.3912 12.0386 10.4318 12.0382L10.7455 12.0359L10.8447 11.7383C10.8575 11.6998 10.912 11.6998 10.9249 11.7383Z" fill="#F5F5F5"/>
</svg>
